HIERARCHY
ROOT Hips
{
	OFFSET 0.000000 0.000000 0.000000 
	CHANNELS 6 Xposition Yposition Zposition Zrotation Yrotation Xrotation
	JOINT LeftUpLeg
	{
		OFFSET 1.363060 -1.794630 0.839290 
		CHANNELS 3 Zrotation Yrotation Xrotation
		JOINT LeftLeg
		{
			OFFSET 2.448110 -6.726130 0.000000 
			CHANNELS 3 Zrotation Yrotation Xrotation
			JOINT LeftFoot
			{
				OFFSET 2.562200 -7.039590 0.000000 
				CHANNELS 3 Zrotation Yrotation Xrotation
				JOINT LeftToeBase
				{
					OFFSET 0.157640 -0.433110 2.322550 
					CHANNELS 3 Zrotation Yrotation Xrotation
					End Site
					{
						OFFSET 0.000000 0.000000 0.000000 
					}
				}
			}
		}
	}
	JOINT RightUpLeg
	{
		OFFSET -1.305520 -1.794630 0.839290 
		CHANNELS 3 Zrotation Yrotation Xrotation
		JOINT RightLeg
		{
			OFFSET -2.542530 -6.985550 0.000000 
			CHANNELS 3 Zrotation Yrotation Xrotation
			JOINT RightFoot
			{
				OFFSET -2.568260 -7.056230 0.000000 
				CHANNELS 3 Zrotation Yrotation Xrotation
				JOINT RightToeBase
				{
					OFFSET -0.164730 -0.452590 2.363150 
					CHANNELS 3 Zrotation Yrotation Xrotation
					End Site
					{
						OFFSET 0.000000 0.000000 0.000000 
					}
				}
			}
		}
	}
	JOINT Spine
	{
		OFFSET 0.028270 2.035590 -0.193380 
		CHANNELS 3 Zrotation Yrotation Xrotation
		JOINT Spine1
		{
			OFFSET 0.056720 2.048850 -0.042750 
			CHANNELS 3 Zrotation Yrotation Xrotation
			JOINT Neck1
			{
				OFFSET -0.054170 1.746240 0.172020 
				CHANNELS 3 Zrotation Yrotation Xrotation
				JOINT Head
				{
					OFFSET 0.104070 1.761360 -0.123970 
					CHANNELS 3 Zrotation Yrotation Xrotation
					End Site
					{
						OFFSET 0.000000 0.000000 0.000000 
					}
				}
			}
			JOINT LeftArm
			{
				OFFSET 3.362410 1.200890 -0.311210 
				CHANNELS 3 Zrotation Yrotation Xrotation
				JOINT LeftForeArm
				{
					OFFSET 4.983000 -0.000000 -0.000000 
					CHANNELS 3 Zrotation Yrotation Xrotation
					JOINT LeftHand
					{
						OFFSET 3.483560 -0.000000 -0.000000 
						CHANNELS 3 Zrotation Yrotation Xrotation
						JOINT LeftHandIndex1
						{
							OFFSET 0.715260 -0.000000 -0.000000 
							CHANNELS 3 Zrotation Yrotation Xrotation
							End Site
							{
								OFFSET 0.000000 0.000000 0.000000 
							}
						}
					}
				}
			}
			JOINT RightArm
			{
				OFFSET -3.136600 1.374050 -0.404650 
				CHANNELS 3 Zrotation Yrotation Xrotation
				JOINT RightForeArm
				{
					OFFSET -5.241900 -0.000000 -0.000000 
					CHANNELS 3 Zrotation Yrotation Xrotation
					JOINT RightHand
					{
						OFFSET -3.444170 -0.000000 -0.000000 
						CHANNELS 3 Zrotation Yrotation Xrotation
						JOINT RightHandIndex1
						{
							OFFSET -0.622530 -0.000000 -0.000000 
							CHANNELS 3 Zrotation Yrotation Xrotation
							End Site
							{
								OFFSET 0.000000 0.000000 0.000000 
							}
						}
					}
				}
			}
		}
	}
}
MOTION
Frames: 13
Frame Time: 0.041667
23.617362 18.375595 -5.284476 177.921410 -5.409410 -146.691995 -12.152085 -10.834792 -13.808473 -0.954466 6.327445 19.166309 1.876297 -1.399869 18.307213 0.242500 -3.169100 -8.749900 10.398261 16.016455 -38.907741 -0.599383 -8.371463 22.458240 1.739071 -10.442042 -2.611721 -0.040200 1.293600 -3.557100 3.324234 -2.915497 -11.683506 -0.322992 -1.916970 0.014994 12.317155 2.724282 -8.905531 3.152300 0.821500 -3.341000 67.043030 -58.197812 -79.102009 15.824139 -27.958526 -2.896963 1.020301 -1.188715 28.780813 -7.125000 0.000000 0.000000 -63.295042 60.716628 -72.237370 -22.923789 38.000545 -6.775184 0.253729 0.774718 13.946531 7.125000 0.000000 0.000000 
23.615596 18.368532 -5.290546 177.892914 -5.165514 -146.567929 -12.246696 -10.970820 -13.748891 -0.967106 6.288902 19.047735 1.817282 -1.218517 18.154323 0.231100 -3.094000 -8.540500 10.273332 16.175718 -39.103113 -0.629859 -8.434941 22.634671 1.726472 -10.394360 -2.610545 -0.055500 1.519700 -4.180000 3.255877 -2.863162 -11.661586 -0.334909 -1.888790 -0.012838 12.225286 2.840465 -9.311113 3.154600 0.874900 -3.479200 67.430869 -57.939507 -79.741608 15.688924 -27.765822 -2.825832 1.019270 -1.195342 29.112447 -7.125000 0.000000 0.000000 -64.110594 60.541669 -73.267029 -22.570609 37.653790 -6.573673 0.267329 0.785385 13.895070 7.125000 0.000000 0.000000 
23.613278 18.360586 -5.298713 177.898935 -4.928507 -146.444078 -12.313972 -11.129451 -13.678858 -0.977699 6.251982 18.923730 1.725454 -0.914570 17.981325 0.231700 -3.098400 -8.552900 10.222719 16.265819 -39.323999 -0.659735 -8.496355 22.811491 1.677679 -10.174772 -2.563891 -0.064700 1.641000 -4.514600 3.144802 -2.858062 -11.614463 -0.431033 -1.890403 -0.030002 12.210452 2.941804 -9.590378 3.126500 0.915800 -3.548600 67.930996 -57.646950 -80.308637 15.547469 -27.555408 -2.746279 1.038062 -1.186694 29.231628 -7.125000 0.000000 0.000000 -65.149151 60.428668 -74.681291 -22.173524 37.262100 -6.350834 0.278210 0.799611 13.859351 7.125000 0.000000 0.000000 
23.608864 18.353854 -5.305334 177.950342 -4.817353 -146.308215 -12.300938 -11.098654 -13.731313 -0.993560 6.211870 18.805595 1.710804 -0.867943 17.902806 0.226200 -3.061400 -8.449800 10.270896 16.241440 -39.589250 -0.688846 -8.558063 22.996438 1.617220 -9.891455 -2.623313 -0.061600 1.601200 -4.404800 3.076546 -2.882100 -11.566016 -0.533985 -1.908586 -0.101533 12.156763 2.912728 -9.603001 3.044200 0.902300 -3.487700 68.506194 -57.417169 -81.156494 15.339955 -27.239841 -2.630654 1.027314 -1.200604 29.429274 -7.125000 0.000000 0.000000 -66.181905 60.280187 -76.078542 -21.739741 36.815842 -6.099371 0.283202 0.816010 13.930270 7.125000 0.000000 0.000000 
23.605553 18.345246 -5.312397 178.046086 -4.682798 -146.156588 -12.302823 -10.681901 -13.964788 -1.013389 6.173274 18.710080 1.792885 -1.160682 17.887448 0.234500 -3.116700 -8.603900 10.400820 16.207182 -39.883745 -0.720034 -8.620686 23.189885 1.575343 -9.696833 -2.710543 -0.077000 1.790400 -4.926700 3.086467 -2.901247 -11.520262 -0.575410 -1.917571 -0.161750 12.125845 2.954842 -9.714083 3.007100 0.924700 -3.478900 68.932634 -57.141072 -82.059257 15.078026 -26.843029 -2.500380 0.992281 -1.233216 29.952187 -7.125000 0.000000 0.000000 -67.299500 60.115394 -77.542166 -21.336801 36.401545 -5.871657 0.287853 0.832967 13.939245 7.125000 0.000000 0.000000 
23.603015 18.334762 -5.320895 178.119886 -4.415083 -146.009261 -12.406928 -10.232450 -14.178641 -1.027875 6.145412 18.635801 1.845282 -1.365248 17.800055 0.272800 -3.359800 -9.282000 10.504208 16.152914 -40.170165 -0.750705 -8.682072 23.383098 1.509272 -9.381402 -2.810356 -0.090400 1.939000 -5.337100 3.201505 -2.870983 -11.470044 -0.431832 -1.890528 -0.179131 12.072475 3.039571 -9.937771 3.006900 0.971300 -3.526400 69.295890 -56.828018 -82.956951 14.854253 -26.486065 -2.383936 0.985859 -1.243866 30.321225 -7.125000 0.000000 0.000000 -68.469036 59.963215 -78.977355 -20.982049 36.043157 -5.677050 0.294697 0.849208 14.183209 7.125000 0.000000 0.000000 
23.599483 18.328030 -5.328289 178.163354 -4.196298 -145.860689 -12.462736 -10.160350 -14.250891 -1.033916 6.130671 18.580674 1.814906 -1.284046 17.627758 0.287300 -3.447200 -9.526400 10.538794 16.102564 -40.441175 -0.778251 -8.739532 23.561356 1.427458 -8.986364 -2.951934 -0.078300 1.804700 -4.966200 3.379558 -2.846296 -11.429716 -0.216179 -1.863313 -0.231442 11.927232 3.161939 -10.194515 2.990900 1.043600 -3.587000 69.595995 -56.531904 -83.932124 14.670563 -26.168625 -2.272761 0.977831 -1.252564 30.763087 -7.125000 0.000000 0.000000 -69.526644 59.737537 -80.220559 -20.626467 35.681086 -5.480661 0.312978 0.860699 14.640395 7.125000 0.000000 0.000000 
23.595400 18.322070 -5.334138 178.204804 -4.049010 -145.729120 -12.463218 -10.218273 -14.280787 -1.034904 6.124482 18.551337 1.769949 -1.146764 17.477826 0.253500 -3.239300 -8.945600 10.522642 16.156352 -40.659084 -0.804109 -8.791516 23.716194 1.384460 -8.782945 -3.027164 -0.068800 1.692700 -4.657000 3.503267 -2.864013 -11.407954 -0.142313 -1.864880 -0.328097 11.640793 3.434532 -10.677979 2.942400 1.188500 -3.756300 69.960317 -56.254125 -85.053046 14.459212 -25.821628 -2.157710 0.943817 -1.280030 31.452283 -7.125000 0.000000 0.000000 -70.547353 59.494824 -81.397356 -20.318582 35.367878 -5.315222 0.329811 0.871209 14.792839 7.125000 0.000000 0.000000 
23.590103 18.313683 -5.341753 178.272178 -3.857162 -145.609925 -12.499779 -10.125010 -14.360858 -1.037032 6.121071 18.530570 1.751949 -1.097611 17.366381 0.231300 -3.095500 -8.544600 10.572690 16.156700 -40.862037 -0.826064 -8.832713 23.845964 1.344661 -8.592429 -3.081005 -0.076200 1.780700 -4.900100 3.479928 -2.881049 -11.380771 -0.164117 -1.885711 -0.450965 10.443605 3.563589 -10.924472 2.495600 1.294500 -3.814400 70.531774 -55.999680 -86.064990 14.241095 -25.461140 -2.039611 0.932001 -1.295709 31.971469 -7.125000 0.000000 0.000000 -71.425997 59.276774 -82.454690 -20.037040 35.067180 -5.160064 0.325703 0.885904 14.784198 7.125000 0.000000 0.000000 
23.583371 18.304633 -5.350802 178.385560 -3.676678 -145.480283 -12.499456 -10.052261 -14.429287 -1.038161 6.110689 18.490586 1.700281 -0.932614 17.212521 0.263500 -3.302400 -9.122000 10.779048 16.019806 -41.127252 -0.842516 -8.869401 23.957997 1.280174 -8.282818 -3.134007 -0.107900 2.118200 -5.832500 3.415420 -2.878232 -11.354406 -0.411094 -1.884037 -0.636767 11.526440 3.536458 -10.391492 2.842500 1.261100 -3.570400 70.792270 -55.665088 -86.554837 14.022673 -25.090963 -1.927091 0.928106 -1.299402 32.620200 -7.125000 0.000000 0.000000 -72.564002 59.241495 -84.269316 -19.628547 34.606600 -4.926731 0.343269 0.898483 15.305809 7.125000 0.000000 0.000000 
23.581053 18.298895 -5.363383 178.509991 -3.447641 -145.361683 -12.490078 -10.068841 -14.440641 -1.038670 6.099290 18.437534 1.610296 -0.633091 17.032876 0.310400 -3.581600 -9.902600 10.927249 16.042880 -41.327947 -0.860643 -8.903629 24.065948 1.229773 -8.042249 -3.173306 -0.141800 2.426700 -6.686400 3.362716 -2.840618 -11.313561 -0.584514 -1.860411 -0.744068 12.378793 3.724772 -10.465622 3.126500 1.323000 -3.575800 71.067441 -55.320872 -86.884064 13.948651 -24.959811 -1.888206 0.950547 -1.283278 32.448196 -7.125000 0.000000 0.000000 -73.894942 59.215144 -86.827097 -19.074573 33.989549 -4.622104 0.391953 0.905384 16.410372 7.125000 0.000000 0.000000 
23.581053 18.295804 -5.380048 178.554553 -3.186810 -145.224871 -12.545858 -10.150891 -14.442437 -1.042376 6.085262 18.370912 1.519775 -0.316311 16.958739 0.301400 -3.529600 -9.757000 10.837738 16.255383 -41.472919 -0.882002 -8.941347 24.178654 1.218767 -7.995020 -3.265771 -0.154900 2.536000 -6.989400 3.348896 -2.741655 -11.214169 -0.513400 -1.801598 -0.674460 12.068676 3.841030 -10.939516 3.019600 1.380500 -3.723100 71.565324 -55.020649 -87.636102 13.872174 -24.832119 -1.846134 0.937817 -1.292609 32.447702 -7.125000 0.000000 0.000000 -74.723384 58.961234 -88.354301 -18.690616 33.546387 -4.411128 0.414362 0.911667 17.124310 7.125000 0.000000 0.000000 
23.576859 18.291280 -5.392850 178.562569 -3.027104 -145.013755 -12.589609 -10.232615 -14.514936 -1.057358 6.052850 18.248721 1.461164 -0.084198 16.998282 0.273700 -3.365300 -9.297500 10.748003 16.313122 -41.760067 -0.909273 -8.994542 24.332266 1.200764 -7.914099 -3.366236 -0.160500 2.581100 -7.114500 3.549729 -2.752965 -11.304370 -0.213740 -1.808624 -0.892720 10.908145 3.841232 -10.897392 2.625200 1.439900 -3.672000 71.789044 -54.875397 -88.806176 13.685470 -24.498359 -1.751319 0.891667 -1.327347 33.397819 -7.125000 0.000000 0.000000 -75.585142 58.788045 -89.253940 -18.498837 33.350468 -4.315261 0.423663 0.918682 17.673526 7.125000 0.000000 0.000000 
